<svg xmlns="http://www.w3.org/2000/svg" width="128" height="128" viewBox="0 0 128 128"><g clip-path="url(#c)">
<defs><clipPath id="c"><rect x="4" y="4" width="120" height="120" rx="26"/></clipPath><radialGradient id="g" cx=".5" cy=".45" r=".7"><stop offset="0" stop-color="#2f3a52"/><stop offset="1" stop-color="#0f131d"/></radialGradient></defs>
<rect x="4" y="4" width="120" height="120" rx="26" fill="url(#g)"/>
<path d="M14 64 C34 34 94 34 114 64 C94 94 34 94 14 64 Z" fill="#1b1f2b" stroke="#6c7aa0" stroke-width="2"/>
<circle cx="64" cy="64" r="22" fill="#e8b04a"/>
<path d="M64 64 m0 -3 a3 3 0 1 1 -3 3 a6 6 0 0 1 6 -6 a9 9 0 0 1 9 9 a12 12 0 0 1 -12 12 a15 15 0 0 1 -15 -15 a18 18 0 0 1 18 -18" fill="none" stroke="#3a2a10" stroke-width="2.5" stroke-linecap="round"/>
<circle cx="72" cy="56" r="4" fill="#fff" opacity=".8"/>
</g></svg>
