<svg xmlns="http://www.w3.org/2000/svg" width="128" height="128" viewBox="0 0 128 128"><g clip-path="url(#c)">
<defs><clipPath id="c"><rect x="4" y="4" width="120" height="120" rx="26"/></clipPath><linearGradient id="g" x1="0" y1="0" x2="0" y2="1"><stop offset="0" stop-color="#26385a"/><stop offset="1" stop-color="#121b2d"/></linearGradient></defs>
<rect x="4" y="4" width="120" height="120" rx="26" fill="url(#g)"/>
<circle cx="30" cy="30" r="1.5" fill="#fff"/><circle cx="98" cy="22" r="1.2" fill="#fff"/><circle cx="108" cy="46" r="1" fill="#fff"/>
<path d="M18 74 L64 44 L110 74 Z" fill="#7a4a24"/>
<path d="M54 40 L64 46 L74 40 M58 36 L64 44 L70 36" stroke="#d99a4a" stroke-width="3" fill="none" stroke-linecap="round"/>
<rect x="26" y="72" width="76" height="34" fill="#5a3418"/>
<path d="M26 80 H102 M26 90 H102" stroke="#4a2a12" stroke-width="1.5"/>
<path d="M56 106 V86 Q64 78 72 86 V106 Z" fill="#f6b84a"/>
<path d="M56 106 V86 Q64 78 72 86 V106 Z" fill="#fff" opacity=".25"/>
<g transform="translate(40 -2) scale(0.38)"><path d="M30 50 L46 44 C50 37 58 33 66 35 C74 37 80 44 85 52 C92 58 100 64 110 72 L99 71 L105 79 L91 74 C86 81 78 86 70 86 L71 98 L67 98 L66 87 L61 87 L61 98 L57 98 L57 85 C49 81 45 72 46 63 L45 55 L46 50 Z" fill="#0e0f14"/></g>
</g></svg>
